<svg xmlns="http://www.w3.org/2000/svg" version="1.1" xmlns:xlink="http://www.w3.org/1999/xlink" xmlns:svgjs="http://svgjs.dev/svgjs" width="100%" height="100%" viewBox="0 0 1000 600"><rect width="1000" height="600" x="0" y="0" fill="#f4efea"/><g><circle r="166.66666666666666" cx="404.35607401529944" cy="426.5783074577897" fill="#fffaf0" transform="matrix(0.5258963734206632,0,0,0.5258963734206632,0,75.66401359302644)"/><path d="M330.6027468340174 351.5783207791283L330.6027468340174 375.2179630745436Q325.1456353787574 375.2179630745436 321.78198478348935 376.2529324884722Q318.4418562203561 377.28790190240085 316.5836156817115 379.56953901947077Q314.7253751430669 381.8511761365407 314.0197141790247 385.6382233102341Q313.3140532149824 389.4487925160622 313.3140532149824 395.39986664615185L313.3140532149824 395.39986664615185L313.3140532149824 400.1277951052349Q313.3140532149824 405.5849065604949 312.65543631520967 409.63069608767046Q311.99681941543685 413.676485614846 309.87983652331013 416.7343497923624Q307.7628536311834 419.7922139698788 303.59945394333414 422.0738510869487Q299.4125322233502 424.3554882040187 292.63818696854463 425.9079423249116L292.63818696854463 425.9079423249116L292.63818696854463 427.2486981565919Q299.4125322233502 428.7305861810806 303.59945394333414 431.0357453302853Q307.7628536311834 433.3644265116247 309.87983652331013 436.3752466248716Q311.99681941543685 439.38606673811853 312.65543631520967 443.5729884581025Q313.3140532149824 447.7599101780865 313.3140532149824 452.95827927986437L313.3140532149824 452.95827927986437L313.3140532149824 457.7567738353516Q313.3140532149824 463.63728186903705 314.0197141790247 467.56546123553886Q314.7253751430669 471.4936406020407 316.5836156817115 473.7517556869759Q318.4418562203561 476.03339280404583 321.78198478348935 476.95075205730075Q325.1456353787574 477.8445892784209 330.6027468340174 477.8445892784209L330.6027468340174 477.8445892784209L330.6027468340174 501.57831970237515Q313.3140532149824 501.57831970237515 301.976433726037 499.3907707138442Q290.6623362692263 497.20322172531326 283.864468982286 492.94573390892504Q277.09012372748043 488.6882460925368 274.3615679998504 482.43138554469556Q271.6330122722204 476.19804702898904 271.6330122722204 467.91829171756L271.6330122722204 467.91829171756L271.6330122722204 459.89727875961313Q271.6330122722204 453.2875877297508 271.13904959739085 448.8184016241499Q270.64508692256123 444.349215518549 269.0220667052641 441.5500936945147Q267.42256852010166 438.72744983834576 264.36470434258524 437.57487026374343Q261.3068401650689 436.42229068914105 256.2496032560994 436.42229068914105L256.2496032560994 436.42229068914105L256.2496032560994 416.5696955674192Q260.97753171518247 416.5696955674192 264.0353958926989 415.3700719285474Q267.09326007021525 414.17044828967556 268.78684638391667 411.3948484977761Q270.480432697618 408.64277073801134 271.04496146885185 404.2206286966799Q271.6330122722204 399.77496462321375 271.6330122722204 393.1652735933514L271.6330122722204 393.1652735933514L271.6330122722204 385.23834876394346Q271.6330122722204 376.9585934525145 274.3615679998504 370.67821087253844Q277.09012372748043 364.39782829256245 283.864468982286 360.16386250830897Q290.6623362692263 355.9534187561903 301.976433726037 353.7658697676593Q313.3140532149824 351.5783207791283 330.6027468340174 351.5783207791283L330.6027468340174 351.5783207791283ZM428.26622425746433 431.78845035859695L401.38054152745474 431.78845035859695L401.38054152745474 436.75159913902746Q401.38054152745474 441.1266971160894 403.5680905159857 443.5729884581025Q405.7556395045167 446.0192798001156 411.54205940966307 446.0192798001156L411.54205940966307 446.0192798001156L419.9864689460353 446.0192798001156L419.9864689460353 476.6920097038186L339.0236343382549 476.6920097038186L339.0236343382549 446.0192798001156Q346.31546430002476 446.0192798001156 349.44389457394544 444.0669511329321Q352.5958468800008 442.11462246574854 352.5958468800008 436.75159913902746L352.5958468800008 436.75159913902746L352.5958468800008 394.90590397132223Q352.5958468800008 389.4487925160622 349.44389457394544 387.49646384887865Q346.31546430002476 385.5676572138299 339.0236343382549 385.5676572138299L339.0236343382549 385.5676572138299L339.0236343382549 354.87140527799215L428.26622425746433 354.87140527799215Q440.4976809675299 354.87140527799215 448.777436278959 357.7881372627001Q457.0336695582532 360.6813472152733 462.0438624029532 365.83267225278166Q467.03053321551835 371.00751932242486 469.1475161076451 378.36991538059897Q471.2644989997719 385.732311438773 471.2644989997719 394.5765955214359L471.2644989997719 394.5765955214359Q471.2644989997719 403.5149677326377 469.1475161076451 410.35987908384743Q467.03053321551835 417.228312467192 462.0438624029532 422.0738510869487Q457.0336695582532 426.9193897067055 448.777436278959 429.3421590165839Q440.4976809675299 431.78845035859695 428.26622425746433 431.78845035859695L428.26622425746433 431.78845035859695ZM401.38054152745474 385.5676572138299L401.38054152745474 412.19459759035726L410.3189137386565 412.19459759035726Q417.25791321840524 412.19459759035726 419.9159028496311 408.54868260947234Q422.55037044872216 404.9027676285874 422.55037044872216 398.9516934984978L422.55037044872216 398.9516934984978Q422.55037044872216 393.32992781829455 419.9159028496311 389.4487925160622Q417.25791321840524 385.5676572138299 410.3189137386565 385.5676572138299L410.3189137386565 385.5676572138299L401.38054152745474 385.5676572138299ZM478.03884425457744 375.2179630745436L478.03884425457744 351.5783207791283Q495.3275378736124 351.5783207791283 506.6886793946926 353.7658697676593Q518.0733429479076 355.9534187561903 524.8476882027132 360.16386250830897Q531.6220334575187 364.39782829256245 534.3035451208793 370.67821087253844Q537.0085788163744 376.9585934525145 537.0085788163744 385.23834876394346L537.0085788163744 385.23834876394346L537.0085788163744 393.1652735933514Q537.0085788163744 399.77496462321375 537.5731075876083 404.2206286966799Q538.1611583909769 408.64277073801134 539.8547447046783 411.3948484977761Q541.5483310183797 414.17044828967556 544.5356290994919 415.3700719285474Q547.4994051484694 416.5696955674192 552.4625539288998 416.5696955674192L552.4625539288998 416.5696955674192L552.4625539288998 436.42229068914105Q547.3347509235261 436.42229068914105 544.2768867460097 437.57487026374343Q541.2190225684933 438.72744983834576 539.5960023511961 441.5500936945147Q537.9965041660337 444.349215518549 537.502541491204 448.8184016241499Q537.0085788163744 453.2875877297508 537.0085788163744 459.89727875961313L537.0085788163744 459.89727875961313L537.0085788163744 467.91829171756Q537.0085788163744 476.19804702898904 534.3035451208793 482.43138554469556Q531.6220334575187 488.6882460925368 524.8476882027132 492.94573390892504Q518.0733429479076 497.20322172531326 506.6886793946926 499.3907707138442Q495.3275378736124 501.57831970237515 478.03884425457744 501.57831970237515L478.03884425457744 501.57831970237515L478.03884425457744 477.8445892784209Q483.49595570983746 477.8445892784209 486.8831283372402 476.95075205730075Q490.270300964643 476.03339280404583 492.12854150328764 473.7517556869759Q494.01030407406694 471.4936406020407 494.6689209738397 467.56546123553886Q495.3275378736124 463.63728186903705 495.3275378736124 457.7567738353516L495.3275378736124 457.7567738353516L495.3275378736124 452.95827927986437Q495.3275378736124 447.7599101780865 496.0331988376547 443.5729884581025Q496.73885980169695 439.38606673811853 498.8323206616889 436.3752466248716Q500.9493035538157 433.3644265116247 504.99509308099124 431.0357453302853Q509.0408826081668 428.7305861810806 516.0034041200504 427.2486981565919L516.0034041200504 427.2486981565919L516.0034041200504 425.9079423249116Q509.0408826081668 424.3554882040187 504.99509308099124 422.0738510869487Q500.9493035538157 419.7922139698788 498.8323206616889 416.7343497923624Q496.73885980169695 413.676485614846 496.0331988376547 409.63069608767046Q495.3275378736124 405.5849065604949 495.3275378736124 400.1277951052349L495.3275378736124 400.1277951052349L495.3275378736124 395.39986664615185Q495.3275378736124 389.4487925160622 494.6689209738397 385.6382233102341Q494.01030407406694 381.8511761365407 492.12854150328764 379.56953901947077Q490.270300964643 377.28790190240085 486.8831283372402 376.2529324884722Q483.49595570983746 375.2179630745436 478.03884425457744 375.2179630745436L478.03884425457744 375.2179630745436Z " fill="#1e90ff" transform="matrix(0.5258963734206632,0,0,0.5258963734206632,0,75.66401359302644)"/><path d="M758.3962969911653 445.0883737838639L727.0526045581367 445.0883737838639L727.0526045581367 450.87447973606777Q727.0526045581367 455.97502811099633 729.6028787456011 458.8269476324617Q732.1531529330654 461.6788671539272 738.8990394934548 461.6788671539272L738.8990394934548 461.6788671539272L748.7436463031286 461.6788671539272L748.7436463031286 497.43755038460887L654.3560790638599 497.43755038460887L654.3560790638599 461.6788671539272Q662.8569930220741 461.6788671539272 666.5041593331788 459.40281599737307Q670.1787479473747 457.1267648408189 670.1787479473747 450.87447973606777L670.1787479473747 450.87447973606777L670.1787479473747 402.09020253715465Q670.1787479473747 395.7282282200395 666.5041593331788 393.45217706348535Q662.8569930220741 391.20354821002223 654.3560790638599 391.20354821002223L654.3560790638599 391.20354821002223L654.3560790638599 355.4174426762495L758.3962969911653 355.4174426762495Q772.6558945984924 355.4174426762495 782.2811229834382 358.81780825953524Q791.933773671475 362.1907515397299 797.7747242298609 368.19623591666186Q803.5882524851557 374.2291425966848 806.0562597633469 382.8123234641721Q808.5242670415381 391.39550433165937 808.5242670415381 401.70629029388044L808.5242670415381 401.70629029388044Q808.5242670415381 412.12676546846563 806.0562597633469 420.1066556679506Q803.5882524851557 428.1139681705265 797.7747242298609 433.7629626072753Q791.933773671475 439.4119570440241 782.2811229834382 442.2364542623985Q772.6558945984924 445.0883737838639 758.3962969911653 445.0883737838639L758.3962969911653 445.0883737838639ZM727.0526045581367 391.20354821002223L727.0526045581367 422.24559530904963L737.473079732722 422.24559530904963Q745.5626591445711 422.24559530904963 748.6339570907645 417.9951383299425Q751.732677340049 413.74468135083544 751.732677340049 406.806838668809L751.732677340049 406.806838668809Q751.732677340049 400.25290823005673 748.6339570907645 395.7282282200395Q745.5626591445711 391.20354821002223 737.473079732722 391.20354821002223L737.473079732722 391.20354821002223L727.0526045581367 391.20354821002223ZM902.884411977716 355.4174426762495L902.884411977716 391.20354821002223Q894.4109203225927 391.20354821002223 890.791176314579 393.45217706348535Q887.1714323065652 395.7282282200395 887.1714323065652 402.09020253715465L887.1714323065652 402.09020253715465L887.1714323065652 461.6788671539272L906.4767336826386 461.6788671539272Q910.4255453277448 461.6788671539272 913.1129310306641 460.91104266737875Q915.8277390366744 460.1157958777394 917.363388009771 457.67521090263915Q918.8990369828679 455.20720362444797 919.5297499539612 450.76479052370377Q920.1604629250545 446.3497997260506 920.1604629250545 439.02804480074997L920.1604629250545 439.02804480074997L953.8898957270013 439.02804480074997L953.8898957270013 497.43755038460887L814.5023291153792 497.43755038460887L814.5023291153792 461.6788671539272Q822.9758207705023 461.6788671539272 826.6504093846983 459.40281599737307Q830.297575695803 457.1267648408189 830.297575695803 450.87447973606777L830.297575695803 450.87447973606777L830.297575695803 402.09020253715465Q830.297575695803 395.7282282200395 826.6504093846983 393.45217706348535Q822.9758207705023 391.20354821002223 814.5023291153792 391.20354821002223L814.5023291153792 391.20354821002223L814.5023291153792 355.4174426762495L902.884411977716 355.4174426762495ZM1039.995927432784 452.0262164658904L1038.624812278233 447.88544869914733L1008.1586335441172 447.88544869914733L1006.8149406926574 452.0262164658904Q1005.2792917195605 456.16698423263347 1007.0068968142945 458.9366368448258Q1008.7619242121194 461.6788671539272 1014.3286517395951 461.6788671539272L1014.3286517395951 461.6788671539272L1019.8405346608889 461.6788671539272L1019.8405346608889 497.43755038460887L959.7856908915691 497.43755038460887L959.7856908915691 461.6788671539272L963.7345025366752 461.6788671539272Q970.6723452187015 461.6788671539272 973.0306632845287 458.9366368448258Q975.388981350356 456.16698423263347 977.610187900728 450.87447973606777L977.610187900728 450.87447973606777L997.3816684293487 402.09020253715465Q999.4931857673567 396.4960527065879 998.0946483097151 393.83608930675956Q996.6961108520735 391.20354821002223 989.6485789576828 391.20354821002223L989.6485789576828 391.20354821002223L987.646750832039 391.20354821002223L987.646750832039 355.4174426762495L1086.750954202962 355.4174426762495L1086.750954202962 391.20354821002223L1084.8039706835002 391.20354821002223Q1077.6741718798366 391.20354821002223 1076.2756344221948 394.00062312530565Q1074.877096964553 396.797698040589 1077.0983035149252 402.09020253715465L1077.0983035149252 402.09020253715465L1096.8697840435461 450.87447973606777Q1098.0215207733686 453.5618654389871 1098.9264567753721 455.53627126154015Q1099.8588150804667 457.5380993871841 1101.202507931926 458.9366368448258Q1102.5462007833858 460.3077519993765 1104.82225193994 460.9933095766518Q1107.098303096494 461.6788671539272 1110.663202498326 461.6788671539272L1110.663202498326 461.6788671539272L1114.6120141434317 461.6788671539272L1114.6120141434317 497.43755038460887L1026.9703334645524 497.43755038460887L1026.9703334645524 461.6788671539272L1032.2628379611183 461.6788671539272Q1037.7747208824117 461.6788671539272 1039.6394374926008 458.9366368448258Q1041.5315764058805 456.16698423263347 1039.995927432784 452.0262164658904L1039.995927432784 452.0262164658904ZM1023.2134779410836 403.2419392669772L1013.0946481004995 432.8580266052719L1033.6339531156686 432.8580266052719L1023.9813024276319 403.2419392669772L1023.2134779410836 403.2419392669772ZM1193.670513954824 351.5783202435076L1193.670513954824 351.5783202435076Q1200.1147551812123 351.5783202435076 1205.763749617961 352.6477900640572Q1211.385321751619 353.6898375815157 1216.0196909740002 355.3900203731585Q1220.6540601963811 357.06278086171034 1224.0270034765758 358.9549197749903Q1227.3999467567705 360.8196363851792 1229.5114640947786 362.38270766136696L1229.5114640947786 362.38270766136696L1229.5114640947786 355.4174426762495L1261.3487579834455 355.4174426762495L1261.3487579834455 407.9585753986315L1227.5919028784078 407.9585753986315Q1227.5919028784078 401.51433417224337 1226.0014092991291 397.1816102838632Q1224.41091571985 392.8488863954831 1221.750952320022 390.13407838947273Q1219.1184112232845 387.4466926865534 1215.553511821453 386.2675336536398Q1211.988612419621 385.11579692381724 1207.820422349787 385.11579692381724L1207.820422349787 385.11579692381724Q1202.1440056099473 385.11579692381724 1198.085504752477 387.2821588680073Q1194.054426198098 389.4485208121974 1191.4767297075427 394.2748461562158Q1188.9264555200784 399.10117150023416 1187.6376072748008 407.10848400281014Q1186.3213367264325 415.11579650538613 1186.3213367264325 426.5783191974298L1186.3213367264325 426.5783191974298Q1186.3213367264325 438.23279801111056 1187.719874184074 446.10299899823144Q1189.1184116417157 453.94577768226134 1191.970331163181 458.8269476324617Q1194.8222506846464 463.70811758266217 1199.2372414822999 465.87447952685227Q1203.6796545830439 468.0408414710423 1209.8496727785218 468.0408414710423L1209.8496727785218 468.0408414710423Q1213.9904405452648 468.0408414710423 1217.8569852810979 466.4503478917635Q1221.723530016931 464.85985431248474 1224.6577164476694 461.5691779415631Q1227.5919028784078 458.3059238737325 1229.2920856700507 453.36990931735005Q1230.9648461586025 448.4613170640586 1230.9648461586025 441.5234743820322L1230.9648461586025 441.5234743820322L1264.5297451420029 441.5234743820322Q1264.5297451420029 453.75382156062426 1260.6632004061703 464.66789819084767Q1256.7966556703373 475.55455251798 1248.597387046124 483.7538211421931Q1240.425540725002 491.95308976640615 1227.7838590000447 496.7519928073335Q1215.1695995781788 501.57831815135194 1197.811281721567 501.57831815135194L1197.811281721567 501.57831815135194Q1182.180568959689 501.57831815135194 1168.2500389894544 497.32786117224487Q1154.3195090192194 493.1048264962287 1143.9538784508163 484.02804417310324Q1133.5882478824133 474.97868415306874 1127.5827635054811 460.7465088488327Q1121.5498568254584 446.5417558476877 1121.5498568254584 426.5783191974298L1121.5498568254584 426.5783191974298Q1121.5498568254584 406.6148825471719 1127.6650304147543 392.41012954602684Q1133.7802040040501 378.17795424179076 1143.8716115415432 369.1285942217563Q1153.9355967759452 360.05181189863083 1166.8515015318126 355.8287772226147Q1179.76740628768 351.5783202435076 1193.670513954824 351.5783202435076ZM1364.7856852427485 497.43755038460887L1276.376180077321 497.43755038460887L1276.376180077321 461.6788671539272Q1284.8496717324442 461.6788671539272 1288.52426034664 459.40281599737307Q1292.1988489608357 457.1267648408189 1292.1988489608357 450.87447973606777L1292.1988489608357 450.87447973606777L1292.1988489608357 402.09020253715465Q1292.1988489608357 395.7282282200395 1288.52426034664 393.45217706348535Q1284.8496717324442 391.20354821002223 1276.376180077321 391.20354821002223L1276.376180077321 391.20354821002223L1276.376180077321 355.4174426762495L1364.7856852427485 355.4174426762495L1364.7856852427485 391.20354821002223Q1356.2847712845346 391.20354821002223 1352.6924495796115 393.45217706348535Q1349.072705571598 395.7282282200395 1349.072705571598 402.09020253715465L1349.072705571598 402.09020253715465L1349.072705571598 450.87447973606777Q1349.072705571598 457.1267648408189 1352.6924495796115 459.40281599737307Q1356.2847712845346 461.6788671539272 1364.7856852427485 461.6788671539272L1364.7856852427485 461.6788671539272L1364.7856852427485 497.43755038460887ZM1467.070875772229 497.43755038460887L1372.6833085329604 497.43755038460887L1372.6833085329604 461.6788671539272Q1381.1568001880837 461.6788671539272 1384.83138880228 459.40281599737307Q1388.5059774164756 457.1267648408189 1388.5059774164756 450.87447973606777L1388.5059774164756 450.87447973606777L1388.5059774164756 402.09020253715465Q1388.5059774164756 395.7282282200395 1384.83138880228 393.45217706348535Q1381.1568001880837 391.20354821002223 1372.6833085329604 391.20354821002223L1372.6833085329604 391.20354821002223L1372.6833085329604 355.4174426762495L1506.1202353738327 355.4174426762495L1506.1202353738327 409.9878258273666L1472.363380268795 409.9878258273666Q1472.363380268795 404.0097637535256 1471.7875119038836 400.4174420486028Q1471.2116435389726 396.797698040589 1469.6211499596939 394.713603005672Q1468.0306563804152 392.656930273846 1465.3706929805867 391.9165280903886Q1462.7381518838492 391.20354821002223 1458.7893402387435 391.20354821002223L1458.7893402387435 391.20354821002223L1445.3798340272374 391.20354821002223L1445.3798340272374 419.06460815049206L1476.1202357922639 419.06460815049206L1476.1202357922639 436.0390137638295L1445.3798340272374 436.0390137638295L1445.3798340272374 450.87447973606777Q1445.3798340272374 455.97502811099633 1447.9301082147017 458.8269476324617Q1450.480382402166 461.6788671539272 1457.2262689625554 461.6788671539272L1457.2262689625554 461.6788671539272L1467.070875772229 461.6788671539272L1467.070875772229 497.43755038460887ZM1561.6503991331351 436.0390137638295L1533.7893391926655 402.09020253715465Q1531.5681326422932 399.8689959867826 1530.0324836691966 397.89459016422956Q1528.469412393009 395.9201843416766 1526.686962692093 394.4668022778529Q1524.904512991177 393.04084251712015 1522.4090834098947 392.1084842120257Q1519.8862315255215 391.20354821002223 1515.9374198804157 391.20354821002223L1515.9374198804157 391.20354821002223L1515.9374198804157 355.4174426762495L1600.6997587347387 355.4174426762495L1600.6997587347387 391.20354821002223Q1592.1988447765243 391.20354821002223 1589.4566144674232 394.00062312530565Q1586.7143841583215 396.797698040589 1589.593725982878 400.9384658073321L1589.593725982878 400.9384658073321L1602.8935429820194 419.4485203937662L1603.6887897716592 419.4485203937662L1616.8789175584366 400.9384658073321Q1620.2518608386313 397.1816102838632 1617.6193197418938 394.1925792469427Q1614.9593563420658 391.20354821002223 1605.8003071096668 391.20354821002223L1605.8003071096668 391.20354821002223L1605.8003071096668 355.4174426762495L1663.825900450252 355.4174426762495L1663.825900450252 391.20354821002223Q1660.9465586256952 391.20354821002223 1658.7801966815055 391.7794165749335Q1656.6138347373153 392.3552849398448 1654.7216958240356 393.6441331851225Q1652.8295569107554 394.96040373349115 1650.8551510882025 397.01707646531713Q1648.8807452656497 399.10117150023416 1646.083670350366 402.09020253715465L1646.083670350366 402.09020253715465L1618.4145665315332 436.0390137638295L1618.4145665315332 450.87447973606777Q1618.4145665315332 457.1267648408189 1622.089155145729 459.40281599737307Q1625.763743759925 461.6788671539272 1634.2372354150484 461.6788671539272L1634.2372354150484 461.6788671539272L1634.2372354150484 497.43755038460887L1545.8277302496203 497.43755038460887L1545.8277302496203 461.6788671539272Q1554.3286442078347 461.6788671539272 1557.9758105189394 459.40281599737307Q1561.6503991331351 457.1267648408189 1561.6503991331351 450.87447973606777L1561.6503991331351 450.87447973606777L1561.6503991331351 436.0390137638295Z " fill="#1e90ff" transform="matrix(0.5258963734206632,0,0,0.5258963734206632,0,75.66401359302644)"/></g></svg>